<svg width="50" height="50" viewBox="0 0 50 50" fill="none" xmlns="http://www.w3.org/2000/svg">
<path d="M50 25C50 38.8071 38.8071 50 25 50C11.1929 50 0 38.8071 0 25C0 11.1929 11.1929 0 25 0C38.8071 0 50 11.1929 50 25Z" fill="#51BC10"/>
<mask id="mask0_246_15" style="mask-type:alpha" maskUnits="userSpaceOnUse" x="0" y="0" width="50" height="50">
<path d="M50 25C50 38.8071 38.8071 50 25 50C11.1929 50 0 38.8071 0 25C0 11.1929 11.1929 0 25 0C38.8071 0 50 11.1929 50 25Z" fill="#51BC10"/>
</mask>
<g mask="url(#mask0_246_15)">
<path d="M24.4081 24.6632C42.7513 -0.617682 -59.9371 -53.2694 -72.4854 2.47216L-10.5031 96.5733L56.0649 74.8036C56.0649 74.8036 6.06495 49.9441 24.4081 24.6632Z" fill="#DFD837" fill-opacity="0.85"/>
</g>
</svg>
